<?xml version="1.0" encoding="utf-8"?>
<!DOCTYPE svg PUBLIC "-//W3C//DTD SVG 1.1//EN" "http://www.w3.org/Graphics/SVG/1.1/DTD/svg11.dtd"[]>
<!-- Creator: CorelDRAW 2019 (64-Bit) -->
<svg xmlns="http://www.w3.org/2000/svg" xml:space="preserve" width="4740" height="2451" version="1.1" style="shape-rendering:geometricPrecision; text-rendering:geometricPrecision; image-rendering:optimizeQuality; fill-rule:evenodd; clip-rule:evenodd" viewBox="720 1800 4740 2451" xmlns:xlink="http://www.w3.org/1999/xlink" xmlns:xodm="http://www.corel.com/coreldraw/odm/2003">
 <defs>
  <style type="text/css">
   <![CDATA[
    .fil1 {fill:black}
    .fil2 {fill:black}
    .fil0 {fill:black;fill-rule:nonzero}
    .fil3 {fill:#6FCBF2;fill-rule:nonzero}
   ]]>
  </style>
 </defs>
 <g id="Слой_x0020_1">
  <metadata id="CorelCorpID_0Corel-Layer" />
  <g id="_2716785208704">
   <path class="fil0" d="M4127.24 3632.16c-4.79,0 -8.86,-1.68 -12.21,-5.03 -3.35,-3.35 -5.03,-7.42 -5.03,-12.21l0 -971.13c0,-4.79 1.68,-8.86 5.03,-12.21 3.35,-3.36 7.42,-5.03 12.21,-5.03l168.08 0c4.79,0 8.86,1.67 12.21,5.03 3.35,3.35 5.03,7.42 5.03,12.21l0 807.36c0,4.79 2.39,7.18 7.18,7.18l301.69 0c4.78,0 8.85,1.68 12.21,5.03 3.35,3.35 5.03,7.42 5.03,12.21l0 139.35c0,4.79 -1.68,8.86 -5.03,12.21 -3.36,3.35 -7.43,5.03 -12.21,5.03l-494.19 0zm1121.98 -849.02c0,4.78 -1.68,8.85 -5.03,12.21 -3.35,3.35 -7.42,5.02 -12.21,5.02l-300.25 0c-4.79,0 -7.18,2.4 -7.18,7.19l0 226.98c0,4.79 2.39,7.18 7.18,7.18l172.39 0c4.79,0 8.86,1.68 12.21,5.03 3.36,3.35 5.03,7.42 5.03,12.21l0 139.35c0,4.79 -1.67,8.86 -5.03,12.21 -3.35,3.35 -7.42,5.03 -12.21,5.03l-172.39 0c-4.79,0 -7.18,2.39 -7.18,7.18l0 228.42c0,4.79 2.39,7.18 7.18,7.18l300.25 0c4.79,0 8.86,1.68 12.21,5.03 3.35,3.35 5.03,7.42 5.03,12.21l0 139.35c0,4.79 -1.68,8.86 -5.03,12.21 -3.35,3.35 -7.42,5.03 -12.21,5.03l-492.75 0c-4.79,0 -8.86,-1.68 -12.21,-5.03 -3.35,-3.35 -5.03,-7.42 -5.03,-12.21l0 -971.13c0,-4.79 1.68,-8.86 5.03,-12.21 3.35,-3.36 7.42,-5.03 12.21,-5.03l492.75 0c4.79,0 8.86,1.67 12.21,5.03 3.35,3.35 5.03,7.42 5.03,12.21l0 139.35z" />
   <path class="fil0" d="M4168.9 4054.36l0 -58.84 -60.6 0 0 58.84 60.6 0zm212.97 -67.19c0,-49.62 -42.59,-60.59 -74.65,-71.57 -18.88,-6.59 -34.25,-13.61 -34.25,-28.54 0,-16.25 19.32,-22.4 39.08,-22.4 15.37,0 43.91,6.59 57.53,14.49l0 -45.23c-21.52,-7.9 -43.48,-11.42 -65.87,-11.42 -44.35,0 -87.83,21.52 -87.83,71.14 0,39.96 32.06,53.14 60.6,63.67 23.71,8.79 45.23,15.81 45.23,34.26 0,20.2 -19.76,25.9 -37.76,25.9 -21.52,0 -49.18,-7.9 -66.31,-16.68l0 47.42c21.52,8.78 43.47,11.42 72.02,11.42 45.23,0 92.21,-18 92.21,-72.46zm180.04 66.75l0 -44.35c-7.47,3.07 -22.84,6.15 -32.94,6.15 -21.95,0 -34.69,-14.49 -34.69,-40.4l0 -102.76 65.43 0 0 -44.79 -65.43 0 0 -69.82 -58.84 18.45 0 51.37 -38.2 0 0 44.79 38.2 0 0 111.1c0,49.18 21.52,75.97 79.04,75.97 16.69,0 37.33,-3.07 47.43,-5.71zm269.18 -112.85c0,-72.02 -52.69,-118.57 -126.91,-118.57 -74.21,0 -126.9,45.23 -126.9,119.01 0,69.38 53.57,118.12 126.9,118.12 73.78,0 126.91,-48.74 126.91,-118.56zm-61.48 0c0,40.4 -23.27,73.77 -65.43,73.77 -42.59,0 -65.42,-32.06 -65.42,-73.77 0,-42.6 25.03,-73.78 65.42,-73.78 40.84,0 65.43,31.62 65.43,73.78zm247.67 -63.68l0 -51.81c-8.35,-1.76 -16.25,-3.08 -26.35,-3.08 -29.42,0 -51.38,14.93 -65.43,40.4l-0.88 0 0 -35.13 -54.01 0 0 226.59 59.28 0 0 -146.67c7.91,-12.73 24.59,-34.69 60.6,-34.69 9.22,0 18.88,1.76 26.79,4.39zm238 79.49l0 -14.5c0,-65.86 -31.61,-119.88 -108.46,-119.88 -66.31,0 -114.61,47.87 -114.61,117.25 0,72.02 49.18,119.88 126.03,119.88 31.61,0 58.4,-6.15 79.48,-14.49l0 -46.99c-17.57,10.54 -47.87,18.45 -71.58,18.45 -39.96,0 -71.14,-21.08 -73.33,-59.72l162.47 0zm-55.77 -36.89l-107.14 0c2.2,-28.54 20.2,-55.33 54.89,-55.33 34.25,0 52.25,24.15 52.25,55.33z" />
   <rect class="fil1" x="3138.06" y="2002" width="222.48" height="28.48" rx="300.32" ry="168.23" />
   <path class="fil0" d="M996.5 3081.07c3.55,0 6.57,1.24 9.06,3.72 2.48,2.49 3.72,5.51 3.72,9.06l0 79.9c0,3.55 -1.24,6.57 -3.72,9.05 -2.49,2.49 -5.51,3.73 -9.06,3.73l-58.59 0c-3.55,0 -5.33,1.78 -5.33,5.33l0 424c0,3.55 -1.24,6.57 -3.73,9.05 -2.48,2.49 -5.5,3.73 -9.05,3.73l-123.58 0c-3.55,0 -6.57,-1.24 -9.06,-3.73 -2.48,-2.48 -3.72,-5.5 -3.72,-9.05l0 -424c0,-3.55 -1.78,-5.33 -5.33,-5.33l-31.96 0c-3.55,0 -6.57,-1.24 -9.06,-3.73 -2.48,-2.48 -3.72,-5.5 -3.72,-9.05l0 -79.9c0,-3.55 1.24,-6.57 3.72,-9.06 2.49,-2.48 5.51,-3.72 9.06,-3.72l31.96 0c3.55,0 5.33,-1.78 5.33,-5.33l0 -28.76c0,-63.92 16.15,-108.13 48.47,-132.64 32.31,-24.5 83.63,-36.04 153.94,-34.62l4.26 0c3.55,0 6.57,1.24 9.05,3.73 2.49,2.48 3.73,5.5 3.73,9.05l-1.06 85.23c0,3.55 -1.25,6.57 -3.73,9.05 -2.49,2.49 -5.51,3.73 -9.06,3.73l-2.13 0c-36.22,0.71 -54.33,22.73 -54.33,66.05l0 19.18c0,3.55 1.78,5.33 5.33,5.33l58.59 0zm270.6 556.09c-63.21,0 -112.75,-15.98 -148.62,-47.94 -35.86,-31.96 -53.8,-75.63 -53.8,-131.03l0 -206.67c0,-53.98 18.12,-97.3 54.34,-129.97 36.22,-32.67 85.58,-49.01 148.08,-49.01 63.2,0 112.92,16.34 149.14,49.01 36.22,32.67 54.33,75.99 54.33,129.97l0 206.67c0,55.4 -17.93,99.07 -53.8,131.03 -35.86,31.96 -85.76,47.94 -149.67,47.94zm0 -129.97c15.62,0 28.4,-5.68 38.35,-17.04 9.94,-11.37 14.91,-25.92 14.91,-43.68l0 -184.3c0,-17.76 -4.97,-32.31 -14.91,-43.68 -9.95,-11.36 -22.73,-17.04 -38.35,-17.04 -15.63,0 -28.24,5.68 -37.82,17.04 -9.59,11.37 -14.38,25.92 -14.38,43.68l0 184.3c0,17.76 4.79,32.31 14.38,43.68 9.58,11.36 22.19,17.04 37.82,17.04zm520.94 -432.52c19.17,0 34.09,3.55 44.74,10.66 5.68,3.55 7.81,8.87 6.39,15.98l-20.24 124.64c-0.71,7.81 -5.68,10.65 -14.91,8.52 -7.82,-2.84 -17.4,-4.26 -28.77,-4.26 -10.65,0 -19.88,1.42 -27.7,4.26 -16.33,2.84 -29.47,12.61 -39.41,29.3 -9.95,16.69 -14.92,36.04 -14.92,58.06l0 292.96c0,3.55 -1.24,6.57 -3.73,9.06 -2.48,2.48 -5.5,3.72 -9.05,3.72l-124.64 0c-3.56,0 -6.57,-1.24 -9.06,-3.72 -2.48,-2.49 -3.73,-5.51 -3.73,-9.06l0 -520.94c0,-3.55 1.25,-6.57 3.73,-9.06 2.49,-2.48 5.5,-3.72 9.06,-3.72l124.64 0c3.55,0 6.57,1.24 9.05,3.72 2.49,2.49 3.73,5.51 3.73,9.06l0 41.55c0,2.84 0.53,4.44 1.6,4.79 1.07,0.36 2.31,-0.53 3.73,-2.66 19.17,-41.91 49,-62.86 89.49,-62.86z" />
   <path class="fil2" d="M2746.68 1853.02l1031.5 0c91.08,0 165.61,74.55 165.61,165.61 0,658.03 0,1316.06 0,1974.09 0,91.09 -74.53,165.61 -165.61,165.61l-1031.5 0c-91.08,0 -165.61,-74.52 -165.61,-165.61 0,-658.03 0,-1316.06 0,-1974.09 0,-91.08 74.53,-165.61 165.61,-165.61zm1112.72 208.87c0,-67.44 -55.2,-122.62 -122.62,-122.62l-948.71 0c-67.41,0 -122.61,55.2 -122.61,122.62 0,629.19 0,1258.38 0,1887.57 0,67.45 55.18,122.63 122.61,122.63l948.71 0c67.44,0 122.62,-55.18 122.62,-122.63 0,-629.19 0,-1258.38 0,-1887.57z" />
   <path class="fil3" d="M3431.21 3642.16c-14.42,0 -22.23,-6.61 -23.43,-19.83l-28.84 -173.02c0,-6.01 -3.61,-9.01 -10.81,-9.01l-228.9 0c-7.21,0 -10.82,3 -10.82,9.01l-28.84 173.02c-1.2,13.22 -9.01,19.83 -23.43,19.83l-210.87 0c-15.62,0 -21.63,-7.81 -18.03,-23.43l264.95 -1218.4c2.4,-13.21 10.21,-19.82 23.43,-19.82l243.32 0c13.22,0 21.03,6.61 23.43,19.82l263.14 1218.4 1.81 7.21c0,10.81 -6.61,16.22 -19.83,16.22l-216.28 0zm-266.75 -407.33c0,6 2.4,9.01 7.21,9.01l162.21 0c6.01,0 8.41,-3.01 7.21,-9.01l-84.71 -492.05c-1.2,-3.6 -3.01,-5.4 -5.41,-5.4 -2.4,0 -4.2,1.8 -5.41,5.4l-81.1 492.05z" />
   <path class="fil0" d="M2191.92 3643.66c-55.55,0 -104.4,-11.01 -146.54,-33.04 -42.14,-22.03 -74.7,-52.91 -97.68,-92.66 -22.99,-39.74 -34.48,-85.48 -34.48,-137.19l0 -41.66c0,-4.79 1.67,-8.86 5.03,-12.22 3.35,-3.35 7.42,-5.02 12.21,-5.02l165.2 0c4.79,0 8.86,1.67 12.22,5.02 3.35,3.36 5.02,7.43 5.02,12.22l0 31.6c0,29.69 7.67,53.63 22.99,71.83 15.32,18.2 34.48,27.3 57.46,27.3 22.99,0 42.14,-8.62 57.47,-25.86 15.32,-17.24 22.98,-39.75 22.98,-67.52 0,-28.73 -9.58,-53.4 -28.73,-73.99 -19.15,-20.59 -56.51,-51 -112.05,-91.22 -47.89,-34.48 -86.68,-65.13 -116.37,-91.94 -29.69,-26.82 -55.07,-59.86 -76.14,-99.13 -21.07,-39.26 -31.6,-84.76 -31.6,-136.47 0,-81.41 25.38,-146.54 76.14,-195.38 50.76,-48.84 117.8,-73.27 201.12,-73.27 84.28,0 152.04,25.38 203.28,76.14 51.24,50.76 76.85,117.33 76.85,199.69l0 34.48c0,4.79 -1.67,8.86 -5.02,12.21 -3.36,3.35 -7.43,5.03 -12.21,5.03l-165.21 0c-4.79,0 -8.86,-1.68 -12.21,-5.03 -3.36,-3.35 -5.03,-7.42 -5.03,-12.21l0 -38.79c0,-29.69 -7.42,-53.39 -22.27,-71.11 -14.84,-17.72 -34.24,-26.58 -58.18,-26.58 -22.99,0 -41.66,8.38 -56.03,25.14 -14.36,16.76 -21.55,39.99 -21.55,69.68 0,28.73 9.1,54.11 27.3,76.14 18.2,22.02 54.11,52.67 107.74,91.94 59.38,44.05 104.16,79.73 134.32,107.02 30.17,27.3 53.64,57.47 70.4,90.51 16.76,33.04 25.14,72.55 25.14,118.52 0,84.28 -25.86,151.32 -77.58,201.12 -51.72,49.8 -119.71,74.7 -203.99,74.7z" />
  </g>
 </g>
</svg>